<?xml version="1.0" standalone="no"?>
<!DOCTYPE svg PUBLIC "-//W3C//DTD SVG 20010904//EN"
 "http://www.w3.org/TR/2001/REC-SVG-20010904/DTD/svg10.dtd">
<svg version="1.0" xmlns="http://www.w3.org/2000/svg"
 width="406" height="368" viewBox="0 0 307 308"
 preserveAspectRatio="xMidYMid meet">
<metadata>
Created by potrace 1.16, written by Peter Selinger 2001-2019
</metadata>
<g transform="translate(0.000000,308.000000) scale(0.100000,-0.100000)"
fill="#1595B6" stroke="none">
<path d="M1390 2349 c-239 -36 -464 -185 -588 -388 -48 -79 -100 -206 -89
-217 5 -6 151 -45 152 -41 1 1 13 30 27 64 63 149 176 268 323 338 50 24 113
48 140 55 64 15 227 15 291 -1 202 -51 360 -175 448 -352 64 -128 64 -129 -31
-125 l-78 3 -35 64 c-164 300 -571 359 -804 117 -106 -109 -146 -207 -146
-357 0 -140 39 -241 133 -344 98 -107 225 -163 372 -164 165 -1 330 83 421
216 53 76 68 112 51 118 -6 3 -120 6 -252 7 l-240 3 0 65 0 65 343 3 c304 2
342 1 342 -13 0 -9 -7 -51 -16 -93 -60 -299 -328 -520 -634 -524 -123 -1 -194
14 -305 66 -147 69 -270 200 -328 349 -12 31 -26 57 -32 57 -5 0 -37 -8 -70
-18 -55 -17 -60 -21 -58 -46 1 -16 15 -56 32 -91 106 -227 307 -394 549 -456
336 -86 695 50 889 336 95 141 134 260 140 435 6 143 -7 218 -56 347 -76 195
-244 373 -428 454 -138 61 -327 89 -463 68z"/>
</g>
</svg>
